<?xml version="1.0" standalone="no"?>
<!DOCTYPE svg PUBLIC "-//W3C//DTD SVG 20010904//EN"
 "http://www.w3.org/TR/2001/REC-SVG-20010904/DTD/svg10.dtd">
<svg version="1.0" xmlns="http://www.w3.org/2000/svg"
 width="323.000000pt" height="323.000000pt" viewBox="0 0 323.000000 323.000000"
 preserveAspectRatio="xMidYMid meet">
<metadata>
Created by potrace 1.16, written by Peter Selinger 2001-2019
</metadata>
<g transform="translate(0.000000,323.000000) scale(0.100000,-0.100000)"
fill="#000000" stroke="none">
<path d="M0 3185 c0 -48 20 -69 43 -46 15 15 27 14 27 -4 0 -8 5 -24 12 -35
10 -15 10 -27 -1 -55 -9 -26 -10 -40 -2 -49 7 -9 7 -22 -1 -44 -11 -28 -9 -35
10 -61 15 -21 18 -31 9 -35 -6 -3 -4 -4 7 -3 10 1 23 -7 30 -18 6 -11 21 -29
34 -40 12 -11 22 -27 22 -34 0 -7 9 -20 20 -29 30 -26 62 -120 66 -196 2 -39
9 -75 16 -82 7 -7 35 -16 62 -20 46 -6 48 -6 41 15 -5 17 -2 21 14 21 37 0 31
17 -9 24 -36 6 -40 9 -40 36 0 16 8 35 18 42 9 7 22 22 28 33 6 11 22 21 35
22 l24 3 -22 -10 c-32 -13 -29 -29 5 -26 19 1 26 7 24 19 -2 9 2 17 8 17 5 0
10 -9 10 -21 0 -12 4 -17 11 -14 6 4 8 13 5 21 -3 8 0 14 7 14 8 0 12 -14 12
-37 0 -35 2 -38 30 -39 44 -2 67 7 61 22 -3 8 -1 14 3 14 5 0 12 -6 14 -12 3
-7 6 -3 6 10 1 18 -3 22 -17 18 -15 -5 -19 -1 -19 24 0 19 -9 38 -27 55 -23
21 -25 28 -15 46 6 12 7 19 1 15 -6 -4 -8 2 -5 15 3 12 11 18 19 15 10 -4 14
3 14 22 0 16 8 32 20 40 11 7 20 17 20 23 0 6 7 26 16 45 16 34 69 70 80 53
10 -16 22 -9 17 10 -3 14 2 20 22 25 15 4 35 4 46 1 11 -4 19 -2 19 4 0 16 33
14 66 -4 34 -17 39 -14 23 17 -17 33 -28 38 -84 38 -59 -1 -321 -57 -492 -107
-37 -11 -67 -13 -100 -8 -27 4 -60 8 -75 9 -16 1 -28 3 -28 4 0 2 24 27 53 56
61 61 117 137 117 157 0 8 13 23 30 32 42 25 42 49 -1 27 -13 -7 -19 -7 -19 0
0 6 -30 10 -75 10 -70 0 -76 -2 -85 -24 -14 -39 -33 -44 -25 -7 l7 31 -71 0
-71 0 0 -45z"/>
<path d="M1209 3216 c7 -8 43 -23 81 -32 38 -10 66 -22 63 -27 -3 -4 -12 -6
-20 -3 -9 4 -22 1 -29 -5 -8 -7 -28 -9 -49 -5 -44 9 -45 0 -2 -18 22 -9 36
-10 45 -3 7 6 42 10 78 9 35 0 64 3 64 7 0 4 -13 6 -29 3 -16 -2 -32 1 -36 7
-5 8 35 10 142 8 81 -2 159 0 173 4 22 6 10 14 -15 9 -21 -4 -135 12 -131 19
3 4 1 13 -4 20 -6 10 -9 9 -14 -7 -4 -12 -14 -19 -24 -17 -65 13 -73 17 -69
29 4 10 -2 13 -19 12 -14 0 -24 -7 -24 -16 -1 -12 -3 -11 -11 3 -8 14 -25 17
-96 17 -73 0 -84 -2 -74 -14z"/>
<path d="M2675 3221 c-3 -5 -21 -7 -40 -4 -23 4 -35 2 -35 -6 0 -6 7 -11 15
-11 8 0 15 -7 15 -15 0 -18 -21 -20 -38 -3 -7 7 -12 9 -12 4 0 -27 55 -45 71
-23 3 4 22 1 42 -8 54 -22 97 -20 97 5 0 17 2 19 14 8 7 -7 11 -18 9 -25 -3
-7 3 -10 16 -6 12 3 21 9 21 13 0 8 62 40 78 40 5 0 12 -9 15 -20 4 -17 0 -20
-24 -20 -24 0 -33 -6 -43 -30 -8 -21 -15 -27 -23 -19 -7 7 -17 2 -32 -20 -18
-24 -20 -35 -11 -51 15 -27 26 -25 51 9 12 16 30 32 41 34 19 5 19 5 2 -14
-16 -17 -16 -19 -1 -19 10 0 17 5 17 10 0 6 5 10 12 10 7 0 -3 -16 -22 -35
-46 -47 -29 -44 39 7 66 49 71 55 71 88 0 14 11 42 25 62 14 20 25 39 25 42 0
10 -389 6 -395 -3z"/>
<path d="M1035 3077 c-116 -13 -108 -33 25 -60 105 -22 190 -29 190 -17 0 5
-8 10 -18 10 -10 0 -25 9 -35 20 -17 20 -10 29 9 10 5 -5 27 -16 49 -24 22 -8
34 -15 26 -15 -11 -1 -10 -6 4 -21 10 -11 22 -20 27 -20 6 0 28 -13 51 -28
169 -115 165 -113 172 -95 3 10 1 19 -5 21 -6 2 -20 22 -31 44 -11 22 -29 43
-40 45 -27 7 -24 23 6 23 22 0 53 33 47 51 0 4 12 12 29 19 44 18 42 25 -4 22
-23 -2 -54 -4 -69 -4 -16 -1 -28 -4 -28 -8 0 -15 -49 -20 -74 -9 -29 14 -70 4
-46 -11 25 -15 4 -21 -26 -8 -16 7 -31 15 -34 18 -46 48 -82 54 -225 37z"/>
<path d="M2967 2995 c-26 -24 -61 -49 -77 -57 -17 -7 -30 -16 -30 -19 0 -8
-145 -79 -160 -79 -16 0 -134 -42 -147 -52 -15 -12 -68 -4 -181 24 -45 12 -85
18 -88 15 -10 -10 6 -27 26 -27 21 0 35 -26 17 -34 -7 -2 -5 -5 4 -5 11 -1 18
-12 21 -31 4 -27 2 -29 -19 -24 -17 5 -23 2 -21 -7 2 -8 -5 -14 -17 -14 -11 0
-21 -7 -21 -15 -1 -8 -2 -19 -3 -24 0 -5 -9 -2 -18 5 -15 13 -16 11 -10 -10 4
-18 1 -24 -14 -28 -19 -5 -27 -23 -9 -23 5 0 24 8 42 18 133 74 207 112 219
112 8 0 22 9 31 20 10 11 30 22 45 25 15 4 36 11 46 16 16 9 47 19 143 49 23
7 48 10 55 7 8 -3 1 -6 -16 -6 -23 -1 -27 -3 -15 -11 13 -9 13 -11 0 -20 -12
-8 -11 -10 7 -10 12 0 26 6 30 14 5 9 28 16 62 18 55 3 56 4 122 86 15 19 31
15 20 -5 -33 -61 -161 -162 -296 -232 -51 -27 -55 -31 -25 -25 33 6 70 22 80
35 7 9 50 -8 50 -20 0 -5 -11 -23 -25 -39 -14 -17 -25 -33 -25 -36 0 -13 60
25 71 45 7 14 17 19 30 16 10 -3 17 -1 13 4 -3 5 1 9 9 9 8 0 26 9 40 20 30
23 37 25 37 7 0 -26 -168 -133 -196 -125 -5 1 -19 -3 -31 -10 -13 -7 -43 -16
-67 -21 -38 -7 -45 -6 -49 10 -3 10 2 28 10 41 13 20 11 19 -10 -3 -34 -37
-83 -69 -75 -49 4 11 -2 15 -23 15 -16 0 -29 -3 -29 -7 0 -5 -9 -8 -21 -8 -13
0 -18 4 -13 12 5 8 2 9 -12 4 -33 -14 -69 -12 -69 3 0 14 7 16 72 25 17 2 46
11 65 19 18 9 48 18 65 22 18 4 36 11 39 17 9 14 -13 10 -222 -45 -94 -24
-180 -50 -191 -58 -18 -12 -5 -14 106 -15 86 -1 147 -7 191 -19 36 -10 70 -18
77 -18 7 0 11 -5 10 -11 -1 -5 17 -14 41 -20 34 -7 42 -13 36 -25 -3 -9 -9
-25 -12 -36 -5 -19 -4 -19 14 -3 74 67 151 118 179 118 8 0 15 3 15 8 0 4 14
15 30 24 17 9 30 15 30 12 0 -2 -12 -27 -26 -54 -33 -63 -41 -110 -20 -110 9
0 16 -8 16 -17 1 -14 4 -12 16 7 15 24 15 24 8 -15 -4 -22 -8 -62 -9 -90 l-2
-50 14 45 c7 25 15 78 16 119 1 46 7 76 14 78 7 3 9 11 6 19 -3 8 -1 14 4 14
6 0 15 11 21 25 13 28 67 65 95 65 11 0 17 -8 17 -21 0 -11 7 -27 15 -36 8 -8
13 -18 10 -23 -3 -4 2 -13 10 -20 8 -7 15 -18 15 -25 0 -7 18 -28 40 -45 l40
-32 0 73 c0 54 -3 70 -11 62 -6 -6 -11 -30 -11 -52 1 -42 -13 -55 -25 -23 -4
9 -15 26 -25 36 -9 10 -15 23 -12 28 3 5 14 -2 24 -14 11 -13 19 -18 20 -12 0
6 -9 19 -20 29 -21 19 -28 41 -9 29 7 -4 10 -1 7 7 -3 8 -10 13 -16 12 -6 -2
-10 11 -10 27 1 29 18 44 18 16 0 -8 9 -24 20 -37 27 -33 24 -12 -4 34 l-23
38 -20 -27 c-12 -16 -25 -24 -31 -20 -17 10 -15 26 6 33 9 4 22 13 28 22 17
23 43 6 65 -44 11 -25 22 -45 24 -45 3 0 5 47 5 104 0 94 -2 105 -19 111 -28
9 -147 126 -155 153 -4 12 -11 20 -16 17 -4 -3 -8 5 -8 18 0 12 -4 36 -9 53
l-8 32 -48 -43z"/>
<path d="M789 785 c-20 -7 -55 -25 -77 -39 -23 -14 -44 -26 -48 -26 -3 0 -20
-10 -37 -22 -18 -13 -53 -33 -79 -45 l-47 -22 -4 22 c-3 21 -4 21 -15 -5 -10
-24 -15 -26 -49 -21 -45 7 -66 21 -58 40 3 8 -1 23 -9 34 -10 15 -15 17 -19 6
-3 -8 -22 -22 -42 -31 -35 -17 -37 -17 -56 0 -18 16 -19 16 -13 1 5 -14 0 -17
-23 -17 -18 0 -33 -8 -42 -22 -13 -21 -13 -21 -27 11 -15 35 -40 38 -37 4 2
-18 -3 -20 -44 -17 -56 4 -63 -3 -63 -71 0 -42 4 -54 29 -78 32 -30 73 -98 90
-149 8 -25 7 -48 -3 -91 -7 -31 -11 -57 -7 -57 3 0 26 11 49 23 33 17 51 35
73 77 16 30 34 54 40 52 6 -1 8 2 5 7 -3 5 5 19 18 32 13 13 53 59 90 102 36
44 66 77 66 74 0 -3 19 13 42 34 24 22 50 39 58 40 8 0 27 8 42 17 75 47 168
100 205 118 24 10 43 22 43 27 0 9 -8 8 -51 -8z"/>
<path d="M2952 746 c14 -11 42 -43 63 -71 21 -27 52 -62 68 -76 l29 -25 -25
-16 c-13 -9 -32 -24 -41 -33 -18 -19 -21 -66 -5 -82 16 -16 3 -48 -26 -63 -14
-7 -25 -17 -25 -22 0 -4 -4 -8 -10 -8 -5 0 -7 6 -4 14 3 8 0 17 -7 22 -7 4
-15 2 -17 -4 -6 -19 -19 -14 -25 9 -4 16 -10 19 -29 14 -36 -11 -97 -85 -104
-128 -5 -26 -11 -36 -20 -33 -11 4 -14 -7 -14 -49 0 -29 -5 -57 -10 -60 -6 -4
-8 -11 -5 -16 8 -12 4 -12 -39 6 -20 9 -42 27 -48 40 -6 14 -17 25 -24 25 -6
0 -24 19 -38 43 -16 27 -25 36 -26 23 0 -10 14 -35 30 -56 17 -21 30 -41 30
-46 0 -4 7 -16 17 -26 18 -20 11 -37 -9 -21 -7 6 -30 16 -50 22 -21 7 -38 17
-38 22 0 5 -6 9 -14 9 -21 0 -91 41 -166 99 -34 26 -73 33 -95 18 -16 -13 -16
-15 -1 -46 9 -17 29 -37 44 -44 15 -6 31 -18 35 -25 5 -8 18 -11 30 -8 24 5
65 -19 53 -31 -4 -4 -11 -1 -16 7 -9 14 -14 7 -11 -12 0 -5 -4 -8 -9 -8 -6 0
-10 -6 -10 -13 0 -18 -39 -54 -65 -60 -17 -4 -18 -5 -2 -6 10 0 26 3 36 8 10
6 33 6 54 1 21 -4 35 -4 31 1 -3 5 19 9 49 9 41 0 56 -4 61 -16 9 -24 7 -29
-6 -16 -7 7 -21 12 -32 12 -20 0 -20 0 0 -15 25 -19 54 -19 54 -1 0 13 4 13
27 1 34 -18 493 -22 493 -4 0 6 9 18 20 27 14 12 22 31 24 62 2 40 26 107 63
179 12 25 9 41 -8 41 -5 0 -9 -13 -9 -30 0 -16 -4 -30 -10 -30 -5 0 -10 7 -10
16 0 8 -5 12 -11 9 -6 -4 -7 -19 -4 -35 5 -21 -1 -39 -21 -70 -15 -22 -32 -39
-38 -37 -15 5 -19 96 -6 164 11 60 79 246 92 251 5 2 8 12 8 23 0 15 -7 19
-31 19 -22 0 -32 5 -36 20 -3 11 -9 17 -14 14 -5 -3 -9 0 -9 5 0 6 -4 11 -9
11 -17 0 -122 108 -109 112 7 3 0 5 -16 5 l-28 1 24 -22z"/>
<path d="M1692 708 c-39 -56 -106 -124 -179 -179 -32 -24 -64 -51 -71 -59 -10
-13 -11 -13 -6 3 8 22 4 22 -36 -8 -41 -30 -60 -32 -60 -6 0 11 -4 23 -10 26
-6 4 -10 -19 -10 -62 -1 -77 -15 -196 -30 -252 -5 -21 -26 -59 -46 -85 -24
-32 -33 -52 -29 -66 6 -18 15 -20 110 -20 73 0 105 4 108 13 4 9 6 9 6 0 1 -7
10 -13 21 -13 11 0 20 6 20 13 0 38 22 196 29 217 5 14 12 39 16 55 10 45 -9
18 -24 -35 -21 -72 -33 -97 -39 -81 -3 8 0 17 7 19 6 2 11 13 11 25 0 21 -1
21 -13 -2 -21 -41 -35 -36 -43 16 -7 47 -7 47 -16 18 -5 -16 -6 -44 -3 -62 3
-18 1 -33 -5 -35 -6 -2 -13 -23 -15 -46 -5 -48 -12 -65 -25 -57 -17 11 10 219
30 235 3 3 14 27 25 55 10 27 23 55 29 60 17 16 38 12 47 -10 5 -14 8 -7 8 25
1 40 7 52 52 100 27 30 54 61 58 69 5 8 16 11 26 8 15 -6 15 -8 1 -23 -9 -8
-16 -19 -16 -24 0 -5 -6 -15 -13 -22 -11 -11 -48 -104 -64 -163 -14 -48 20 8
71 120 31 66 61 126 68 135 15 18 52 130 45 137 -3 2 -19 -15 -35 -39z"/>
<path d="M1764 682 c3 -5 -1 -33 -9 -63 -8 -30 -20 -83 -26 -119 -5 -36 -16
-74 -24 -86 -7 -11 -11 -32 -8 -46 3 -14 -2 -41 -10 -59 -42 -97 -78 -202 -73
-215 3 -8 2 -13 -3 -9 -5 3 -12 -1 -15 -7 -4 -7 -4 -3 -2 9 2 12 -3 31 -11 43
-12 17 -13 27 -4 46 6 13 15 24 20 24 5 0 12 11 15 24 3 13 9 32 12 43 4 11
-5 6 -24 -14 -17 -18 -38 -33 -46 -33 -12 0 -16 -10 -16 -40 0 -27 4 -40 14
-40 7 0 16 -9 19 -20 5 -18 3 -19 -23 -5 -34 17 -40 12 -40 -34 l1 -36 15 28
c8 15 19 27 24 27 14 0 13 -5 -10 -42 -31 -50 -27 -58 30 -58 49 0 50 1 50 30
0 16 18 78 41 137 23 60 43 119 44 132 4 27 23 44 139 129 51 37 73 58 62 60
-9 2 -23 -1 -31 -8 -10 -8 -15 -8 -20 0 -4 6 -14 9 -22 6 -18 -7 -65 23 -57
36 4 6 10 5 16 -3 7 -10 8 -5 4 14 -4 15 -2 36 4 47 9 16 8 20 -5 20 -8 0 -15
7 -15 15 0 9 6 12 15 9 8 -4 15 -2 15 4 0 5 -7 12 -15 16 -8 3 -15 15 -15 26
0 11 -5 20 -11 20 -5 0 -8 -4 -5 -8z"/>
<path d="M819 464 c-7 -9 -22 -20 -34 -25 -19 -9 -77 -47 -101 -68 -6 -5 -30
-19 -53 -31 -24 -12 -41 -27 -38 -33 3 -7 -18 -23 -49 -38 l-54 -25 22 23 c12
13 27 23 35 23 7 0 13 4 13 9 0 14 -100 3 -200 -20 -93 -22 -90 -19 -142 -122
-18 -34 -38 -68 -45 -75 -7 -7 -13 -22 -13 -32 0 -10 -3 -25 -6 -34 -3 -9 -1
-16 5 -16 6 0 11 7 11 15 0 9 11 20 24 25 13 5 26 14 28 21 3 9 6 10 11 2 4
-6 -3 -22 -14 -37 l-20 -26 78 0 c54 0 85 5 99 15 14 10 15 14 5 15 -23 0 20
29 44 30 11 0 33 11 49 24 16 14 36 22 44 19 8 -3 18 0 23 8 6 11 -1 17 -29
26 l-37 11 55 3 c78 4 91 4 130 -5 33 -6 34 -6 16 9 -11 8 -30 15 -43 15 -13
0 -23 4 -23 8 0 5 28 7 63 6 l62 -3 -50 9 c-55 11 -181 5 -199 -8 -6 -5 -36
-14 -68 -21 -33 -7 -67 -22 -83 -37 -38 -35 -75 -58 -82 -50 -3 3 -4 7 -2 9 2
1 22 16 44 32 54 41 137 84 152 78 13 -5 69 21 96 45 9 8 17 12 17 9 0 -4 9 2
20 13 11 11 30 20 43 19 20 -1 19 -2 -8 -15 -29 -13 -28 -14 25 -8 74 7 78 7
130 -6 41 -10 120 -18 120 -13 0 1 -13 9 -29 18 -16 8 -35 28 -43 45 -9 22
-20 30 -38 30 -24 1 -24 1 -6 15 11 8 16 15 10 15 -5 0 -1 5 9 11 9 5 17 17
17 24 0 8 4 15 8 15 5 0 14 12 21 27 14 31 0 51 -20 27z"/>
<path d="M718 160 c40 -16 25 -32 -28 -29 -27 2 -53 0 -56 -4 -4 -4 -14 -7
-22 -7 -17 0 -78 -27 -112 -50 -14 -10 -42 -20 -62 -24 -30 -5 -38 -12 -38
-28 0 -20 1 -20 18 -5 33 30 117 40 267 33 77 -4 156 -9 175 -12 l35 -5 -34
16 c-18 8 -42 15 -52 15 -11 0 -19 5 -19 11 0 8 -4 8 -14 0 -12 -10 -17 -8
-26 8 -10 19 -8 21 20 21 17 0 40 5 51 11 11 5 56 12 101 14 44 3 83 7 86 10
7 7 2 7 -131 9 -75 2 -121 6 -129 14 -7 7 -21 12 -32 11 -20 0 -20 -1 2 -9z"/>
</g>
</svg>
